<svg width="87" height="40" viewBox="0 0 87 40" fill="none" xmlns="http://www.w3.org/2000/svg">
<mask id="mask0" mask-type="alpha" maskUnits="userSpaceOnUse" x="0" y="0" width="87" height="40">
<rect width="87" height="40" fill="#C4C4C4"/>
</mask>
<g mask="url(#mask0)">
<mask id="mask1" mask-type="alpha" maskUnits="userSpaceOnUse" x="44" y="12" width="28" height="28">
<path fill-rule="evenodd" clip-rule="evenodd" d="M44.5703 12.5714H71.9516V39.9998H44.5703V12.5714Z" fill="white"/>
</mask>
<g mask="url(#mask1)">
<path fill-rule="evenodd" clip-rule="evenodd" d="M69.6873 26.9897C69.3253 32.9732 64.3557 37.7123 58.2863 37.7123C51.9709 37.7123 46.8595 32.5974 46.8595 26.2846C46.8595 21.2144 50.1573 16.9156 54.7279 15.4202C54.8113 14.8638 54.8543 14.2945 54.8543 13.714C54.8543 13.4758 54.8457 13.2419 54.8345 13.0089C48.9293 14.5396 44.5703 19.903 44.5703 26.2846C44.5703 33.8572 50.7077 39.9997 58.2863 39.9997C65.4874 39.9997 71.396 34.4411 71.9516 27.3767C71.1767 27.3096 70.42 27.1798 69.6873 26.9897ZM58.2868 14.8563C64.0132 14.8563 68.7617 19.076 69.5864 24.5804C70.3397 24.8246 71.1274 24.9949 71.9426 25.0818C71.3321 18.0707 65.4493 12.5714 58.2868 12.5714C57.8853 12.5714 57.4897 12.5895 57.101 12.6221C57.1259 12.9825 57.1414 13.3462 57.1414 13.7143C57.1414 14.1202 57.1208 14.5226 57.0898 14.9182C57.4819 14.8769 57.8801 14.8563 58.2868 14.8563Z" fill="#00A651"/>
</g>
<mask id="mask2" mask-type="alpha" maskUnits="userSpaceOnUse" x="14" y="12" width="29" height="28">
<path fill-rule="evenodd" clip-rule="evenodd" d="M14.8555 12.5719H42.2393V40H14.8555V12.5719Z" fill="white"/>
</mask>
<g mask="url(#mask2)">
<path fill-rule="evenodd" clip-rule="evenodd" d="M42.2393 27.3765C41.6838 34.4417 35.7777 40.0003 28.5715 40.0003C20.9946 40.0003 14.8555 33.8578 14.8555 26.2843C14.8555 19.9036 19.2153 14.5402 25.1214 13.0095C25.1317 13.2417 25.1394 13.4764 25.1394 13.7138C25.1394 14.2951 25.0956 14.8644 25.013 15.4208C20.4433 16.9162 17.1463 21.215 17.1463 26.2843C17.1463 32.5971 22.2561 37.7129 28.5715 37.7129C34.6435 37.7129 39.613 32.9738 39.9751 26.9903C40.7052 27.1795 41.4653 27.3102 42.2393 27.3765ZM27.375 14.9188C27.4076 14.5232 27.4283 14.1208 27.4283 13.714C27.4283 13.3468 27.4128 12.9831 27.3879 12.6228C27.7766 12.5901 28.1721 12.572 28.572 12.572C35.7353 12.572 41.625 18.0713 42.2355 25.0824C41.4152 24.9947 40.6249 24.8253 39.8733 24.581C39.0486 19.0766 34.2992 14.856 28.572 14.856C28.167 14.856 27.7671 14.8775 27.375 14.9188Z" fill="#FCB131"/>
</g>
<mask id="mask3" mask-type="alpha" maskUnits="userSpaceOnUse" x="59" y="0" width="28" height="28">
<path fill-rule="evenodd" clip-rule="evenodd" d="M59.4648 0H86.853V27.4284H59.4648V0Z" fill="white"/>
</mask>
<g mask="url(#mask3)">
<path fill-rule="evenodd" clip-rule="evenodd" d="M86.853 13.714C86.853 21.2883 80.7147 27.4283 73.1387 27.4283C65.9677 27.4283 60.0866 21.9299 59.476 14.9179C60.2964 15.0031 61.0815 15.1751 61.8374 15.4201C62.6595 20.9229 67.4046 25.1434 73.1387 25.1434C79.4489 25.1434 84.5655 20.0251 84.5655 13.714C84.5655 7.40381 79.4489 2.28547 73.1387 2.28547C67.0615 2.28547 62.0954 7.02544 61.7334 13.0097C60.9981 12.8205 60.2448 12.6898 59.4648 12.6219C60.0264 5.55753 65.9316 -0.000244141 73.1387 -0.000244141C80.7147 -0.000244141 86.853 6.14056 86.853 13.714Z" fill="#EE334E"/>
</g>
<mask id="mask4" mask-type="alpha" maskUnits="userSpaceOnUse" x="29" y="0" width="29" height="28">
<path fill-rule="evenodd" clip-rule="evenodd" d="M29.7559 0H57.1414V27.4284H29.7559V0Z" fill="white"/>
</mask>
<g mask="url(#mask4)">
<path fill-rule="evenodd" clip-rule="evenodd" d="M43.4249 25.1437C37.6969 25.1437 32.9474 20.9231 32.1236 15.4204C31.3694 15.1753 30.5835 15.0033 29.7631 14.9182C30.3745 21.9301 36.2556 27.4285 43.4249 27.4285C43.8273 27.4285 44.2238 27.4122 44.6142 27.3769C44.5875 27.0192 44.5712 26.6537 44.5712 26.2848C44.5712 25.8798 44.5918 25.4773 44.6254 25.0826C44.2307 25.123 43.8308 25.1437 43.4249 25.1437ZM43.4246 -0.000244141C36.2183 -0.000244141 30.314 5.55753 29.7559 12.6219C30.5324 12.6898 31.284 12.8205 32.0218 13.0097C32.3812 7.02544 37.3508 2.28547 43.4246 2.28547C49.7399 2.28547 54.8548 7.40381 54.8548 13.714C54.8548 18.7833 51.5553 23.0839 46.9838 24.581C46.9021 25.1348 46.86 25.705 46.86 26.2846C46.86 26.5228 46.8617 26.7584 46.8781 26.9897C52.7824 25.4599 57.1414 20.0965 57.1414 13.714C57.1414 6.14056 51.0032 -0.000244141 43.4246 -0.000244141Z" fill="black"/>
</g>
<mask id="mask5" mask-type="alpha" maskUnits="userSpaceOnUse" x="0" y="0" width="28" height="28">
<path fill-rule="evenodd" clip-rule="evenodd" d="M0 0H27.4272V27.4284H0V0Z" fill="white"/>
</mask>
<g mask="url(#mask5)">
<path fill-rule="evenodd" clip-rule="evenodd" d="M27.4277 13.714C27.4277 6.14056 21.2894 -0.000244141 13.7117 -0.000244141C6.14081 -0.000244141 0 6.14056 0 13.714C0 21.2883 6.14081 27.4283 13.7117 27.4283C14.1133 27.4283 14.5063 27.412 14.8984 27.3776C14.8717 27.019 14.8554 26.6535 14.8554 26.2846C14.8554 25.8795 14.8769 25.4771 14.9087 25.0824C14.5149 25.1228 14.1167 25.1434 13.7117 25.1434C7.40061 25.1434 2.28399 20.0251 2.28399 13.714C2.28399 7.40381 7.40061 2.28547 13.7117 2.28547C20.0262 2.28547 25.1394 7.40381 25.1394 13.714C25.1394 18.7842 21.8398 23.0839 17.2692 24.581C17.1884 25.1348 17.1463 25.705 17.1463 26.2846C17.1463 26.5228 17.148 26.7584 17.1635 26.9897C23.0687 25.4599 27.4277 20.0965 27.4277 13.714Z" fill="#0081C8"/>
</g>
</g>
</svg>
